<svg width="32" height="26" viewBox="0 0 32 26" fill="none" xmlns="http://www.w3.org/2000/svg">
<g clip-path="url(#clip0_298_41)">
<path d="M22.7355 7.12307C21.5256 7.12307 20.389 7.58438 19.5355 8.42231L17.5291 10.4057L17.3037 13.3825L23.5847 7.16612L23.0139 7.13155C22.921 7.12579 22.8285 7.12307 22.7355 7.12307ZM6.86348 11.1102C5.98363 11.9737 5.50291 13.1736 5.54532 14.4012L5.5658 14.9877L16.1048 4.61231C16.1762 4.54231 16.2353 4.45905 16.2853 4.35818L16.3051 4.31861L16.31 4.2747C16.3174 4.20764 16.3346 4.14057 16.3625 4.0697L16.3778 4.03101L16.3797 3.98981C16.392 3.72416 16.2956 3.47677 16.108 3.29274L15.412 2.60959L6.86348 11.1102ZM14.3952 13.9426C14.1085 13.9426 13.8366 14.0555 13.6291 14.2604L9.20719 18.6316L9.77582 18.6679C9.87325 18.6742 9.97057 18.6771 10.0682 18.6771C11.2774 18.6771 12.4137 18.2155 13.2679 17.3773L14.4806 16.1904L15.1539 15.5296L15.2561 15.3961C15.509 15.0659 15.4965 14.6018 15.2127 14.2967C15.2106 14.2946 15.2087 14.2924 15.2066 14.2902C14.9974 14.0694 14.7018 13.9426 14.3952 13.9426ZM17.1197 15.818L16.8991 18.7364L29.2878 6.46579C29.472 6.28492 29.5737 6.04622 29.5737 5.79394C29.5737 5.53894 29.4732 5.29948 29.2905 5.12025C29.1124 4.94546 28.9418 4.77992 28.7863 4.63035L28.6023 4.45307L17.1197 15.818ZM14.8237 8.5497C14.5428 8.5497 14.2761 8.66003 14.0725 8.86046L2.55326 20.2025L2.73207 20.3821C2.89205 20.5426 3.07119 20.7213 3.2594 20.9064C3.44219 21.0855 3.68521 21.1841 3.94372 21.1841C4.20235 21.1841 4.44526 21.0855 4.62772 20.9064L15.1041 10.5618L15.6219 10.0685C15.6625 10.0297 15.7011 9.98862 15.7331 9.94275C15.9466 9.63677 15.9298 9.21905 15.6698 8.9397C15.6677 8.93753 15.6228 8.8934 15.6208 8.89133C15.4154 8.67427 15.125 8.5497 14.8237 8.5497ZM25.417 12.9292C25.1696 12.9292 24.9404 13.027 24.7536 13.2119L16.887 21.0024C16.7038 21.1821 16.6022 21.4216 16.6017 21.6755C16.6009 21.9296 16.7014 22.1683 16.8843 22.3479L17.567 23.0179L25.9399 14.6894C26.0153 14.6155 26.0889 14.5376 26.1591 14.4581C26.4043 14.1807 26.4618 13.8242 26.313 13.5045C26.153 13.1604 25.7927 12.9292 25.417 12.9292ZM15.7413 23.4698C15.1254 22.8651 14.8637 22.0014 15.0414 21.1591L15.048 21.1267L15.0443 21.0607C15.0428 21.0379 15.0405 21.0149 15.0423 20.9913L15.297 17.6223L14.4135 18.4968C13.2552 19.6335 11.713 20.2599 10.0716 20.2599C9.39618 20.2599 8.7299 20.1517 8.09119 19.9379L7.93774 19.8863L5.77284 22.0262C5.28481 22.5052 4.63469 22.7692 3.94284 22.7692C3.25209 22.7692 2.60353 22.5061 2.1165 22.0282C1.76598 21.6839 1.44623 21.3614 1.21273 21.1233L0.300781 20.1735L4.27609 16.2582L4.22693 16.1101C3.51925 13.9764 4.10393 11.575 5.71659 9.99209L15.4044 0.358398L17.2511 2.17079C17.8063 2.7159 18.0784 3.49959 17.9789 4.26753L17.9759 4.29057L17.9789 4.34155C17.9809 4.36905 17.9834 4.39688 17.9814 4.42525L17.7132 7.97198L18.3902 7.30285C19.5479 6.16633 21.09 5.54035 22.732 5.54035C23.4034 5.54035 24.0659 5.64753 24.7007 5.85861L24.8541 5.90959L28.5707 2.2309L29.1443 2.76383C29.2047 2.81992 29.7554 3.33296 30.4336 3.99851C30.9214 4.47742 31.1901 5.11481 31.1901 5.79383C31.1904 6.46992 30.9216 7.10601 30.4336 7.58492L28.5088 9.49231L28.5597 9.64101C29.2961 11.7861 28.718 14.2064 27.0868 15.8075L17.5744 25.2691L15.7413 23.4698Z" fill="#FF6900"/>
</g>
<defs>
<clipPath id="clip0_298_41">
<rect width="31" height="25" fill="white" transform="translate(0.300781 0.358887)"/>
</clipPath>
</defs>
</svg>
