<svg width="8" height="11" viewBox="0 0 8 11" fill="none" xmlns="http://www.w3.org/2000/svg">
<path d="M4.80078 10.5051C4.80078 10.7813 4.57692 11.0051 4.30078 11.0051C4.02464 11.0051 3.80078 10.7813 3.80078 10.5051L4.30078 10.5051L4.80078 10.5051ZM3.94723 0.859094C4.14249 0.663831 4.45907 0.663831 4.65434 0.859094L7.83632 4.04107C8.03158 4.23634 8.03158 4.55292 7.83632 4.74818C7.64105 4.94344 7.32447 4.94344 7.12921 4.74818L4.30078 1.91975L1.47235 4.74818C1.27709 4.94344 0.96051 4.94344 0.765248 4.74818C0.569985 4.55292 0.569985 4.23634 0.765248 4.04107L3.94723 0.859094ZM4.30078 10.5051L3.80078 10.5051L3.80078 1.21265L4.30078 1.21265L4.80078 1.21265L4.80078 10.5051L4.30078 10.5051Z" fill="#FF6900"/>
</svg>
