<svg width="165" height="91" viewBox="0 0 165 91" fill="none" xmlns="http://www.w3.org/2000/svg">
<path d="M98.8081 17.7024C95.7641 17.7024 92.9034 18.8854 90.7563 21.0338L85.707 26.1187L85.1403 33.7509L100.946 17.8125L99.509 17.7239C99.2754 17.7098 99.0424 17.7024 98.8081 17.7024ZM58.8689 27.9254C56.6547 30.1389 55.4449 33.2151 55.5516 36.3632L55.6027 37.8664L82.1232 11.2653C82.3031 11.0861 82.4515 10.8726 82.577 10.6134L82.6267 10.5127L82.6395 10.3999C82.6583 10.228 82.7019 10.0555 82.7717 9.87423L82.81 9.77487L82.8154 9.66946C82.8462 8.98869 82.6032 8.35425 82.1312 7.88227L80.3796 6.13067L58.8689 27.9254ZM77.821 35.187C77.1 35.187 76.4152 35.4763 75.8935 36.002L64.7662 47.2085L66.1976 47.3019C66.4426 47.318 66.687 47.3253 66.9327 47.3253C69.9761 47.3253 72.8348 46.1417 74.9845 43.9933L78.0365 40.95L79.7304 39.2561L79.9875 38.9137C80.624 38.0671 80.5925 36.8775 79.8781 36.0953C79.8734 36.0893 79.868 36.0839 79.8627 36.0779C79.337 35.5119 78.5931 35.187 77.821 35.187ZM84.6771 39.9953L84.1219 47.4778L115.296 16.0173C115.76 15.554 116.016 14.9417 116.016 14.2952C116.016 13.6413 115.763 13.027 115.303 12.5684C114.855 12.12 114.426 11.6957 114.035 11.3116L113.572 10.8571L84.6771 39.9953ZM78.8999 21.3601C78.193 21.3601 77.5216 21.6434 77.0087 22.1576L48.0222 51.2368L48.472 51.6973C48.8749 52.1089 49.326 52.5667 49.7993 53.0414C50.2592 53.5 50.8708 53.7531 51.5214 53.7531C52.172 53.7531 52.7836 53.5 53.2428 53.0414L79.6049 26.5189L80.908 25.254C81.01 25.1553 81.1074 25.0492 81.188 24.9324C81.7251 24.1476 81.6828 23.0768 81.0288 22.3597C81.0235 22.355 80.91 22.2416 80.9053 22.2362C80.3877 21.6796 79.6579 21.3601 78.8999 21.3601ZM105.556 32.5887C104.934 32.5887 104.357 32.8398 103.886 33.3132L84.091 53.2878C83.6304 53.7477 83.3746 54.362 83.3739 55.0126C83.3719 55.6645 83.6244 56.2767 84.0849 56.7373L85.803 58.4547L106.872 37.1024C107.061 36.9117 107.247 36.7123 107.423 36.5089C108.041 35.7972 108.185 34.8835 107.811 34.0637C107.408 33.1816 106.502 32.5887 105.556 32.5887ZM81.2088 59.6135C79.6592 58.0633 79 55.8484 79.4471 53.6893L79.4646 53.6067L79.4545 53.4368C79.4505 53.3784 79.4451 53.3194 79.4491 53.2589L80.0903 44.6211L77.8674 46.8634C74.9529 49.7772 71.0717 51.3838 66.9415 51.3838C65.2422 51.3838 63.5651 51.1065 61.9579 50.558L61.5718 50.4257L56.1243 55.9122C54.8964 57.1401 53.2603 57.8175 51.5187 57.8175C49.7812 57.8175 48.1491 57.1428 46.9238 55.9176C46.041 55.034 45.2374 54.2083 44.6492 53.5973L42.3545 51.1622L52.3573 41.1239L52.2344 40.7439C50.4539 35.2742 51.9249 29.1171 55.9827 25.0586L80.3608 0.358887L85.0074 5.00612C86.4045 6.40324 87.0893 8.41266 86.8389 10.3818L86.8315 10.4409L86.8389 10.5711C86.8443 10.6416 86.8503 10.7134 86.8456 10.786L86.1702 19.879L87.8741 18.1637C90.7872 15.2499 94.6678 13.6447 98.7994 13.6447C100.489 13.6447 102.156 13.9192 103.753 14.461L104.139 14.5913L113.492 5.15986L114.935 6.52677C115.088 6.66978 116.473 7.98499 118.18 9.69162C119.407 10.9196 120.083 12.5537 120.083 14.2945C120.084 16.028 119.408 17.6588 118.18 18.8867L113.336 23.777L113.464 24.1583C115.317 29.6582 113.862 35.8637 109.758 39.9685L85.8211 64.2265L81.2088 59.6135Z" fill="#0D120C"/>
<path d="M118.435 86.9906C118.967 88.0876 119.807 88.3475 120.961 87.7862C122.04 87.2639 122.317 86.4159 121.989 85.7425C121.104 83.9144 115.65 87.8661 113.551 83.5357C112.664 81.7076 113.508 79.2779 116.201 77.9721C118.8 76.7112 121.229 77.5531 122.302 79.7673L119.701 81.2665C119.225 80.2856 118.395 79.9969 117.414 80.4736C116.548 80.8939 116.242 81.7304 116.532 82.3286C117.371 84.0608 122.823 80.1084 124.969 84.5347C125.904 86.4582 125.06 88.8886 122.175 90.2891C119.384 91.6419 116.955 90.7993 115.834 88.4891L118.435 86.9906Z" fill="#0D120C"/>
<path d="M124.316 73.6829L126.454 71.9031L135.71 74.4932L130.646 68.4106L133.029 66.4274L141.653 76.7819L139.516 78.5624L130.26 75.9696L135.324 82.0529L132.942 84.0381L124.316 73.6829Z" fill="#0D120C"/>
<path d="M150.395 58.0915C152.134 60.0781 152.66 63.2248 150.746 65.9331C148.638 68.9194 144.477 69.6203 141.332 67.3994C138.188 65.1785 137.459 61.0227 139.568 58.0364C141.407 55.4342 144.561 54.8602 147.014 55.8343L145.339 58.5782C144.268 58.2405 142.938 58.4533 142.014 59.7639C140.891 61.353 141.306 63.584 143.122 64.867C144.937 66.1499 147.178 65.7955 148.302 64.205C149.289 62.8079 149.074 61.4792 148.369 60.5876L150.395 58.0915Z" fill="#0D120C"/>
<path d="M144.944 49.5898L146.026 46.6848L150.836 48.474L152.625 43.6637L147.816 41.8744L148.897 38.9688L161.522 43.6657L160.441 46.5727L155.432 44.7083L153.642 49.5187L158.652 51.3811L157.571 54.2874L144.944 49.5898Z" fill="#0D120C"/>
<path d="M160.622 36.1295L153.409 29.5023L152.783 35.0264L149.809 34.6887L150.879 25.2338L153.429 25.5231L160.641 32.1496L161.327 26.0945L164.301 26.4315L163.171 36.4181L160.622 36.1295Z" fill="#0D120C"/>
<path d="M160.975 18.6781C160.922 17.8237 161.624 17.032 162.477 16.9803C163.331 16.9285 164.124 17.6297 164.177 18.4841C164.228 19.3373 163.525 20.1291 162.671 20.1808C161.818 20.2325 161.026 19.5313 160.975 18.6781Z" fill="#0D120C"/>
</svg>
