<svg width="21" height="21" viewBox="0 0 21 21" fill="none" xmlns="http://www.w3.org/2000/svg">
<path d="M18.0786 0.358887C18.6679 0.358887 19.2332 0.593013 19.6499 1.00976C20.0667 1.42651 20.3008 1.99174 20.3008 2.58111V18.1367C20.3008 18.726 20.0667 19.2913 19.6499 19.708C19.2332 20.1248 18.6679 20.3589 18.0786 20.3589H2.523C1.93363 20.3589 1.3684 20.1248 0.951655 19.708C0.534907 19.2913 0.300781 18.726 0.300781 18.1367V2.58111C0.300781 1.99174 0.534907 1.42651 0.951655 1.00976C1.3684 0.593013 1.93363 0.358887 2.523 0.358887H18.0786ZM17.523 17.5811V11.6922C17.523 10.7315 17.1414 9.81022 16.4621 9.13092C15.7828 8.45162 14.8615 8.07 13.9008 8.07C12.9563 8.07 11.8563 8.64778 11.323 9.51444V8.28111H8.223V17.5811H11.323V12.1033C11.323 11.2478 12.0119 10.5478 12.8674 10.5478C13.28 10.5478 13.6757 10.7117 13.9674 11.0034C14.2591 11.2951 14.423 11.6908 14.423 12.1033V17.5811H17.523ZM4.61189 6.53667C5.10696 6.53667 5.58176 6.34 5.93183 5.98993C6.28189 5.63986 6.47856 5.16507 6.47856 4.67C6.47856 3.63666 5.64523 2.79222 4.61189 2.79222C4.11388 2.79222 3.63625 2.99006 3.2841 3.34221C2.93195 3.69436 2.73411 4.17198 2.73411 4.67C2.73411 5.70333 3.57856 6.53667 4.61189 6.53667ZM6.15634 17.5811V8.28111H3.07856V17.5811H6.15634Z" fill="#F3F3ED"/>
</svg>
