<svg width="25" height="24" viewBox="0 0 25 24" fill="none" xmlns="http://www.w3.org/2000/svg">
<path d="M1.29907 12.7773V12C1.29907 10.8954 2.1945 10 3.29907 10C4.40364 10 5.29907 10.8954 5.29907 12V12.7773C5.29907 13.8819 4.40364 14.7773 3.29907 14.7773C2.1945 14.7773 1.29907 13.8819 1.29907 12.7773ZM10.2991 12.7773V12C10.2991 10.8954 11.1945 10 12.2991 10C13.4036 10 14.2991 10.8954 14.2991 12V12.7773C14.2991 13.8819 13.4036 14.7773 12.2991 14.7773C11.1945 14.7773 10.2991 13.8819 10.2991 12.7773ZM19.2991 12.7773V12C19.2991 10.8954 20.1945 10 21.2991 10C22.4036 10 23.2991 10.8954 23.2991 12V12.7773C23.2991 13.8819 22.4036 14.7773 21.2991 14.7773C20.1945 14.7773 19.2991 13.8819 19.2991 12.7773Z" fill="#FF6900"/>
</svg>
