<svg width="21" height="21" viewBox="0 0 21 21" fill="none" xmlns="http://www.w3.org/2000/svg">
<path d="M11.9675 6.19263V0.741793C12.7284 1.03013 13.4284 1.47429 14.0217 2.06679L16.925 4.97179C17.5184 5.56429 17.9625 6.26429 18.2509 7.02513H12.8009C12.3409 7.02513 11.9675 6.65179 11.9675 6.19263ZM18.6142 8.69263H12.8009C11.4225 8.69263 10.3009 7.57096 10.3009 6.19263V0.378459C10.1667 0.369293 10.0325 0.358459 9.8967 0.358459H6.1342C3.8367 0.359293 1.96753 2.22846 1.96753 4.52596V16.1926C1.96753 18.4901 3.8367 20.3593 6.1342 20.3593H14.4675C16.765 20.3593 18.6342 18.4901 18.6342 16.1926V9.09679C18.6342 8.96096 18.6234 8.82679 18.6142 8.69263ZM13.39 15.781L12.0459 17.126C11.565 17.6068 10.9325 17.8476 10.3009 17.8476C9.6692 17.8476 9.0367 17.6068 8.55586 17.126L7.2117 15.781C6.88586 15.4551 6.88586 14.9276 7.2117 14.6026C7.53753 14.2768 8.0642 14.2768 8.39003 14.6026L9.46753 15.6801V12.0151C9.46753 11.5551 9.84003 11.1818 10.3009 11.1818C10.7617 11.1818 11.1342 11.5551 11.1342 12.0151V15.6801L12.2117 14.6026C12.5375 14.2768 13.0642 14.2768 13.39 14.6026C13.7159 14.9276 13.7159 15.4551 13.39 15.781Z" fill="#F3F3ED"/>
</svg>
