<svg width="21" height="21" viewBox="0 0 21 21" fill="none" xmlns="http://www.w3.org/2000/svg">
<path d="M10.3008 0.358887C15.8238 0.358887 20.3008 4.83589 20.3008 10.3589C20.3008 15.8819 15.8238 20.3589 10.3008 20.3589C8.53355 20.3619 6.79738 19.8942 5.2708 19.0039L0.304797 20.3589L1.6568 15.3909C0.765755 13.8638 0.2977 12.1269 0.300797 10.3589C0.300797 4.83589 4.7778 0.358887 10.3008 0.358887ZM6.8928 5.65889L6.6928 5.66689C6.56349 5.6758 6.43714 5.70976 6.3208 5.76689C6.21237 5.8284 6.11336 5.90518 6.0268 5.99489C5.9068 6.10789 5.8388 6.20589 5.7658 6.30089C5.39592 6.78179 5.19677 7.3722 5.1998 7.97889C5.2018 8.46889 5.3298 8.94589 5.5298 9.39189C5.9388 10.2939 6.6118 11.2489 7.4998 12.1339C7.7138 12.3469 7.9238 12.5609 8.1498 12.7599C9.25323 13.7313 10.5681 14.4319 11.9898 14.8059L12.5578 14.8929C12.7428 14.9029 12.9278 14.8889 13.1138 14.8799C13.405 14.8645 13.6893 14.7857 13.9468 14.6489C14.0776 14.5812 14.2054 14.5078 14.3298 14.4289C14.3298 14.4289 14.3721 14.4002 14.4548 14.3389C14.5898 14.2389 14.6728 14.1679 14.7848 14.0509C14.8688 13.9642 14.9388 13.8636 14.9948 13.7489C15.0728 13.5859 15.1508 13.2749 15.1828 13.0159C15.2068 12.8179 15.1998 12.7099 15.1968 12.6429C15.1928 12.5359 15.1038 12.4249 15.0068 12.3779L14.4248 12.1169C14.4248 12.1169 13.5548 11.7379 13.0228 11.4959C12.9671 11.4716 12.9075 11.4577 12.8468 11.4549C12.7784 11.4477 12.7092 11.4554 12.644 11.4773C12.5788 11.4992 12.519 11.5349 12.4688 11.5819C12.4638 11.5799 12.3968 11.6369 11.6738 12.5129C11.6323 12.5686 11.5751 12.6108 11.5096 12.6339C11.4441 12.6571 11.3731 12.6602 11.3058 12.6429C11.2406 12.6255 11.1768 12.6035 11.1148 12.5769C10.9908 12.5249 10.9478 12.5049 10.8628 12.4689C10.2887 12.2188 9.75724 11.8804 9.2878 11.4659C9.1618 11.3559 9.0448 11.2359 8.9248 11.1199C8.53141 10.7431 8.18855 10.3169 7.9048 9.85189L7.8458 9.75689C7.80406 9.69268 7.76984 9.6239 7.7438 9.55189C7.7058 9.40489 7.8048 9.28689 7.8048 9.28689C7.8048 9.28689 8.0478 9.02089 8.1608 8.87689C8.2708 8.73689 8.3638 8.60089 8.4238 8.50389C8.5418 8.31389 8.5788 8.11889 8.5168 7.96789C8.2368 7.28389 7.94746 6.60355 7.6488 5.92689C7.5898 5.79289 7.4148 5.69689 7.2558 5.67789C7.2018 5.67122 7.1478 5.66589 7.0938 5.66189C6.95953 5.65419 6.82489 5.65552 6.6908 5.66589L6.8928 5.65889Z" fill="#25D366"/>
</svg>
